<svg width="200" height="200" viewBox="0 0 200 200" fill="none" xmlns="http://www.w3.org/2000/svg">
<rect width="200" height="200" rx="20" fill="#615FFF"/>
<path d="M99.9784 40C96.3207 62.8173 93.2473 76.3813 84.8143 84.8143C76.3813 93.2473 62.8173 96.3207 40 99.9784C62.8173 103.636 76.3813 106.71 84.8143 115.168C93.2473 123.601 96.3207 137.165 99.9784 160C103.636 137.165 106.71 123.601 115.143 115.143C123.601 106.71 137.165 103.636 160 99.9784C137.165 96.3207 123.601 93.2473 115.168 84.8143C106.71 76.3813 103.636 62.8173 99.9784 40ZM142.423 57.5848C130.789 65.9924 121.848 72.0378 113.873 75.416C115.168 77.8037 116.667 79.8357 118.394 81.563C120.121 83.2902 122.153 84.7889 124.566 86.1097C127.97 78.1339 134.015 69.1929 142.423 57.5848ZM57.6001 57.6001C66.0178 69.2183 72.0378 78.1339 75.416 86.0843C77.8037 84.7889 79.8357 83.2902 81.563 81.563C83.2902 79.8357 84.7889 77.8037 86.0843 75.416C78.1339 72.0378 69.2183 66.0178 57.6001 57.6001ZM124.566 113.847C122.153 115.168 120.121 116.667 118.394 118.394C116.667 120.121 115.168 122.153 113.847 124.566C121.848 127.944 130.789 133.99 142.423 142.423C133.99 130.789 127.944 121.848 124.566 113.847ZM75.416 113.873C72.0378 121.848 65.9924 130.789 57.5848 142.423C69.1929 134.015 78.1339 127.97 86.1097 124.566C84.7889 122.153 83.2902 120.121 81.563 118.394C79.8357 116.667 77.8037 115.168 75.416 113.873Z" fill="white"/>
</svg>
